ffmpeg started on 2025-06-06 at 15:38:44
Report written to "D:\Convert\FFMetrics\reports\ssim_report-6.txt"
Log level: 32
Command line:
ffmpeg -hide_banner -nostdin -i "G:\\\xc0\xed\xe8\xec\xe5\\\xce\xed\xe3\xee\xe8\xed\xe3\xe8\\!_36_\xce\xf1\xe5\xed\xfc_2024\\DreamCast\\\xcf\xe5\xf0\xe5\xf0\xee\xe6\xe4\xe5\xed\xe8\xe5 \xe2 \xe0\xf0\xe8\xf1\xf2\xee\xea\xf0\xe0\xf2\xe0 \xf1\xee \xf1\xef\xee\xf1\xee\xe1\xed\xee\xf1\xf2\xfc\xfe \xe0\xed\xe0\xeb\xe8\xe7\xe0\\\xd2\xc2-1\\[DC] Tensei Kizoku - Kantei Skill de Nariagaru - 01_Telegram_HEVC.mkv" -i "G:\\\xc0\xed\xe8\xec\xe5\\\xce\xed\xe3\xee\xe8\xed\xe3\xe8\\!_36_\xce\xf1\xe5\xed\xfc_2024\\DreamCast\\\xcf\xe5\xf0\xe5\xf0\xee\xe6\xe4\xe5\xed\xe8\xe5 \xe2 \xe0\xf0\xe8\xf1\xf2\xee\xea\xf0\xe0\xf2\xe0 \xf1\xee \xf1\xef\xee\xf1\xee\xe1\xed\xee\xf1\xf2\xfc\xfe \xe0\xed\xe0\xeb\xe8\xe7\xe0\\\xd2\xc2-1\\[DC] Tensei Kizoku - Kantei Skill de Nariagaru - 01_Telegram.mp4" -lavfi "[0:v]settb=AVTB,setpts=PTS-STARTPTS,format=pix_fmts=yuv420p10,fps=24000/1001,scale=1920:1080:flags=bicubic[main];[1:v]settb=AVTB,setpts=PTS-STARTPTS,format=pix_fmts=yuv420p,fps=24000/1001,scale=1920:1080:flags=bicubic[ref];[main][ref]ssim=eof_action=endall:stats_file='D\\:/Convert/FFMetrics/logs/ssim_logfile-6.txt'" -f null -
Input #0, matroska,webm, from 'G:\Аниме\Онгоинги\!_36_Осень_2024\DreamCast\Перерождение в аристократа со способностью анализа\ТВ-1\[DC] Tensei Kizoku - Kantei Skill de Nariagaru - 01_Telegram_HEVC.mkv':
  Metadata:
    COMPATIBLE_BRANDS: isomiso2avc1mp41
    MAJOR_BRAND     : isom
    MINOR_VERSION   : 512
    ENCODER         : Lavf61.7.100
  Duration: 00:23:46.69, start: -0.021000, bitrate: 1094 kb/s
  Stream #0:0: Video: hevc (Main 10), yuv420p10le(tv, bt709, progressive), 1920x1080 [SAR 1:1 DAR 16:9], 23.98 fps, 23.98 tbr, 1k tbn (default)
      Metadata:
        HANDLER_NAME    : VideoHandler
        VENDOR_ID       : [0][0][0][0]
        ENCODER         : Lavc61.19.100 libx265
        BPS             : 896426
        DURATION        : 00:23:46.549708333
        NUMBER_OF_FRAMES: 34203
        NUMBER_OF_BYTES : 159849593
        _STATISTICS_WRITING_APP: mkvpropedit v66.0.0 ('Josie') 64-bit
        _STATISTICS_WRITING_DATE_UTC: 2025-06-02 06:43:32
        _STATISTICS_TAGS: BPS DURATION NUMBER_OF_FRAMES NUMBER_OF_BYTES
  Stream #0:1: Audio: aac (LC), 48000 Hz, stereo, fltp (default)
      Metadata:
        HANDLER_NAME    : SoundHandler
        VENDOR_ID       : [0][0][0][0]
        ENCODER         : Lavc61.19.100 aac
        BPS             : 193780
        DURATION        : 00:23:46.688000000
        NUMBER_OF_FRAMES: 66877
        NUMBER_OF_BYTES : 34558077
        _STATISTICS_WRITING_APP: mkvpropedit v66.0.0 ('Josie') 64-bit
        _STATISTICS_WRITING_DATE_UTC: 2025-06-02 06:43:32
        _STATISTICS_TAGS: BPS DURATION NUMBER_OF_FRAMES NUMBER_OF_BYTES
Input #1, mov,mp4,m4a,3gp,3g2,mj2, from 'G:\Аниме\Онгоинги\!_36_Осень_2024\DreamCast\Перерождение в аристократа со способностью анализа\ТВ-1\[DC] Tensei Kizoku - Kantei Skill de Nariagaru - 01_Telegram.mp4':
  Metadata:
    major_brand     : isom
    minor_version   : 512
    compatible_brands: isomiso2avc1mp41
    encoder         : Lavf60.16.100
  Duration: 00:23:46.65, start: 0.000000, bitrate: 3709 kb/s
  Stream #1:0[0x1](und): Video: h264 (High) (avc1 / 0x31637661), yuv420p(tv, bt709, progressive), 1920x1080 [SAR 1:1 DAR 16:9], 3561 kb/s, 23.98 fps, 23.98 tbr, 24k tbn (default)
      Metadata:
        handler_name    : VideoHandler
        vendor_id       : [0][0][0][0]
        encoder         : Lavc60.31.102 h264_qsv
  Stream #1:1[0x2](und): Audio: aac (HE-AACv2) (mp4a / 0x6134706D), 48000 Hz, stereo, fltp, 144 kb/s (default)
      Metadata:
        handler_name    : SoundHandler
        vendor_id       : [0][0][0][0]
Stream mapping:
  Stream #0:0 (hevc) -> settb:default
  Stream #1:0 (h264) -> settb:default
  ssim:default -> Stream #0:0 (wrapped_avframe)
  Stream #0:1 -> #0:1 (aac (native) -> pcm_s16le (native))
Output #0, null, to 'pipe:':
  Metadata:
    COMPATIBLE_BRANDS: isomiso2avc1mp41
    MAJOR_BRAND     : isom
    MINOR_VERSION   : 512
    encoder         : Lavf61.7.100
  Stream #0:0: Video: wrapped_avframe, yuv420p10le(tv, bt709, progressive), 1920x1080 [SAR 1:1 DAR 16:9], q=2-31, 200 kb/s, 23.98 fps, 23.98 tbn
      Metadata:
        encoder         : Lavc61.19.100 wrapped_avframe
  Stream #0:1: Audio: pcm_s16le, 48000 Hz, stereo, s16, 1536 kb/s (default)
      Metadata:
        HANDLER_NAME    : SoundHandler
        VENDOR_ID       : [0][0][0][0]
        _STATISTICS_TAGS: BPS DURATION NUMBER_OF_FRAMES NUMBER_OF_BYTES
        BPS             : 193780
        DURATION        : 00:23:46.688000000
        NUMBER_OF_FRAMES: 66877
        NUMBER_OF_BYTES : 34558077
        _STATISTICS_WRITING_APP: mkvpropedit v66.0.0 ('Josie') 64-bit
        _STATISTICS_WRITING_DATE_UTC: 2025-06-02 06:43:32
        encoder         : Lavc61.19.100 pcm_s16le
frame=  183 fps=0.0 q=-0.0 size=N/A time=00:00:07.63 bitrate=N/A speed=14.8x    frame=  431 fps=419 q=-0.0 size=N/A time=00:00:17.97 bitrate=N/A speed=17.5x    frame=  685 fps=441 q=-0.0 size=N/A time=00:00:28.57 bitrate=N/A speed=18.4x    frame=  877 fps=426 q=-0.0 size=N/A time=00:00:36.57 bitrate=N/A speed=17.8x    frame= 1098 fps=425 q=-0.0 size=N/A time=00:00:45.79 bitrate=N/A speed=17.7x    frame= 1290 fps=416 q=-0.0 size=N/A time=00:00:53.80 bitrate=N/A speed=17.3x    frame= 1521 fps=421 q=-0.0 size=N/A time=00:01:03.43 bitrate=N/A speed=17.5x    frame= 1751 fps=423 q=-0.0 size=N/A time=00:01:13.03 bitrate=N/A speed=17.7x    frame= 1987 fps=426 q=-0.0 size=N/A time=00:01:22.87 bitrate=N/A speed=17.8x    frame= 2244 fps=433 q=-0.0 size=N/A time=00:01:33.59 bitrate=N/A speed=18.1x    frame= 2452 fps=431 q=-0.0 size=N/A time=00:01:42.26 bitrate=N/A speed=  18x    frame= 2682 fps=433 q=-0.0 size=N/A time=00:01:51.86 bitrate=N/A speed=  18x    frame= 2927 fps=435 q=-0.0 size=N/A time=00:02:02.08 bitrate=N/A speed=18.2x    frame= 3187 fps=440 q=-0.0 size=N/A time=00:02:12.92 bitrate=N/A speed=18.4x    frame= 3424 fps=441 q=-0.0 size=N/A time=00:02:22.80 bitrate=N/A speed=18.4x    frame= 3611 fps=437 q=-0.0 size=N/A time=00:02:30.60 bitrate=N/A speed=18.2x    frame= 3816 fps=434 q=-0.0 size=N/A time=00:02:39.15 bitrate=N/A speed=18.1x    frame= 3980 fps=428 q=-0.0 size=N/A time=00:02:45.99 bitrate=N/A speed=17.9x    frame= 4135 fps=421 q=-0.0 size=N/A time=00:02:52.46 bitrate=N/A speed=17.6x    frame= 4325 fps=418 q=-0.0 size=N/A time=00:03:00.38 bitrate=N/A speed=17.5x    frame= 4512 fps=416 q=-0.0 size=N/A time=00:03:08.18 bitrate=N/A speed=17.4x    frame= 4673 fps=411 q=-0.0 size=N/A time=00:03:14.90 bitrate=N/A speed=17.2x    frame= 4863 fps=409 q=-0.0 size=N/A time=00:03:22.82 bitrate=N/A speed=17.1x    frame= 5076 fps=410 q=-0.0 size=N/A time=00:03:31.71 bitrate=N/A speed=17.1x    frame= 5271 fps=408 q=-0.0 size=N/A time=00:03:39.84 bitrate=N/A speed=  17x    frame= 5490 fps=409 q=-0.0 size=N/A time=00:03:48.97 bitrate=N/A speed=17.1x    frame= 5703 fps=409 q=-0.0 size=N/A time=00:03:57.86 bitrate=N/A speed=17.1x    frame= 5936 fps=411 q=-0.0 size=N/A time=00:04:07.58 bitrate=N/A speed=17.1x    frame= 6173 fps=413 q=-0.0 size=N/A time=00:04:17.46 bitrate=N/A speed=17.2x    frame= 6384 fps=412 q=-0.0 size=N/A time=00:04:26.26 bitrate=N/A speed=17.2x    frame= 6615 fps=413 q=-0.0 size=N/A time=00:04:35.90 bitrate=N/A speed=17.2x    frame= 6848 fps=414 q=-0.0 size=N/A time=00:04:45.61 bitrate=N/A speed=17.3x    frame= 7074 fps=415 q=-0.0 size=N/A time=00:04:55.04 bitrate=N/A speed=17.3x    frame= 7301 fps=416 q=-0.0 size=N/A time=00:05:04.55 bitrate=N/A speed=17.3x    frame= 7514 fps=415 q=-0.0 size=N/A time=00:05:13.39 bitrate=N/A speed=17.3x    frame= 7765 fps=418 q=-0.0 size=N/A time=00:05:23.86 bitrate=N/A speed=17.4x    frame= 8012 fps=419 q=-0.0 size=N/A time=00:05:34.16 bitrate=N/A speed=17.5x    frame= 8244 fps=420 q=-0.0 size=N/A time=00:05:43.84 bitrate=N/A speed=17.5x    frame= 8465 fps=420 q=-0.0 size=N/A time=00:05:53.06 bitrate=N/A speed=17.5x    frame= 8742 fps=423 q=-0.0 size=N/A time=00:06:04.61 bitrate=N/A speed=17.7x    frame= 9028 fps=426 q=-0.0 size=N/A time=00:06:16.54 bitrate=N/A speed=17.8x    frame= 9268 fps=427 q=-0.0 size=N/A time=00:06:26.55 bitrate=N/A speed=17.8x    frame= 9517 fps=428 q=-0.0 size=N/A time=00:06:36.93 bitrate=N/A speed=17.9x    frame= 9754 fps=429 q=-0.0 size=N/A time=00:06:46.82 bitrate=N/A speed=17.9x    frame= 9986 fps=430 q=-0.0 size=N/A time=00:06:56.49 bitrate=N/A speed=17.9x    frame=10246 fps=431 q=-0.0 size=N/A time=00:07:07.34 bitrate=N/A speed=  18x    frame=10499 fps=433 q=-0.0 size=N/A time=00:07:17.89 bitrate=N/A speed=  18x    frame=10743 fps=434 q=-0.0 size=N/A time=00:07:28.07 bitrate=N/A speed=18.1x    frame=10992 fps=434 q=-0.0 size=N/A time=00:07:38.45 bitrate=N/A speed=18.1x    frame=11262 fps=436 q=-0.0 size=N/A time=00:07:49.71 bitrate=N/A speed=18.2x    frame=11514 fps=437 q=-0.0 size=N/A time=00:08:00.22 bitrate=N/A speed=18.2x    frame=11730 fps=437 q=-0.0 size=N/A time=00:08:09.23 bitrate=N/A speed=18.2x    frame=12008 fps=439 q=-0.0 size=N/A time=00:08:20.83 bitrate=N/A speed=18.3x    frame=12273 fps=440 q=-0.0 size=N/A time=00:08:31.88 bitrate=N/A speed=18.4x    frame=12516 fps=441 q=-0.0 size=N/A time=00:08:42.02 bitrate=N/A speed=18.4x    frame=12760 fps=441 q=-0.0 size=N/A time=00:08:52.19 bitrate=N/A speed=18.4x    frame=12993 fps=441 q=-0.0 size=N/A time=00:09:01.91 bitrate=N/A speed=18.4x    frame=13208 fps=441 q=-0.0 size=N/A time=00:09:10.88 bitrate=N/A speed=18.4x    frame=13442 fps=441 q=-0.0 size=N/A time=00:09:20.64 bitrate=N/A speed=18.4x    frame=13664 fps=441 q=-0.0 size=N/A time=00:09:29.90 bitrate=N/A speed=18.4x    frame=13909 fps=442 q=-0.0 size=N/A time=00:09:40.12 bitrate=N/A speed=18.4x    frame=14135 fps=442 q=-0.0 size=N/A time=00:09:49.54 bitrate=N/A speed=18.4x    frame=14376 fps=442 q=-0.0 size=N/A time=00:09:59.59 bitrate=N/A speed=18.4x    frame=14622 fps=443 q=-0.0 size=N/A time=00:10:09.85 bitrate=N/A speed=18.5x    frame=14846 fps=443 q=-0.0 size=N/A time=00:10:19.20 bitrate=N/A speed=18.5x    frame=15114 fps=444 q=-0.0 size=N/A time=00:10:30.37 bitrate=N/A speed=18.5x    frame=15355 fps=444 q=-0.0 size=N/A time=00:10:40.43 bitrate=N/A speed=18.5x    frame=15618 fps=445 q=-0.0 size=N/A time=00:10:51.40 bitrate=N/A speed=18.6x    frame=15861 fps=445 q=-0.0 size=N/A time=00:11:01.53 bitrate=N/A speed=18.6x    frame=16111 fps=446 q=-0.0 size=N/A time=00:11:11.96 bitrate=N/A speed=18.6x    frame=16360 fps=446 q=-0.0 size=N/A time=00:11:22.34 bitrate=N/A speed=18.6x    frame=16590 fps=446 q=-0.0 size=N/A time=00:11:31.94 bitrate=N/A speed=18.6x    frame=16798 fps=446 q=-0.0 size=N/A time=00:11:40.61 bitrate=N/A speed=18.6x    frame=17006 fps=445 q=-0.0 size=N/A time=00:11:49.29 bitrate=N/A speed=18.6x    frame=17238 fps=445 q=-0.0 size=N/A time=00:11:59.00 bitrate=N/A speed=18.6x    frame=17493 fps=446 q=-0.0 size=N/A time=00:12:09.60 bitrate=N/A speed=18.6x    frame=17734 fps=446 q=-0.0 size=N/A time=00:12:19.65 bitrate=N/A speed=18.6x    frame=17963 fps=446 q=-0.0 size=N/A time=00:12:29.20 bitrate=N/A speed=18.6x    frame=18218 fps=447 q=-0.0 size=N/A time=00:12:39.84 bitrate=N/A speed=18.6x    frame=18474 fps=447 q=-0.0 size=N/A time=00:12:50.51 bitrate=N/A speed=18.7x    frame=18762 fps=449 q=-0.0 size=N/A time=00:13:02.53 bitrate=N/A speed=18.7x    frame=19025 fps=449 q=-0.0 size=N/A time=00:13:13.50 bitrate=N/A speed=18.7x    frame=19227 fps=449 q=-0.0 size=N/A time=00:13:21.92 bitrate=N/A speed=18.7x    frame=19419 fps=448 q=-0.0 size=N/A time=00:13:29.93 bitrate=N/A speed=18.7x    frame=19649 fps=448 q=-0.0 size=N/A time=00:13:39.52 bitrate=N/A speed=18.7x    frame=19911 fps=448 q=-0.0 size=N/A time=00:13:50.45 bitrate=N/A speed=18.7x    frame=20191 fps=450 q=-0.0 size=N/A time=00:14:02.13 bitrate=N/A speed=18.8x    frame=20456 fps=450 q=-0.0 size=N/A time=00:14:13.18 bitrate=N/A speed=18.8x    frame=20704 fps=451 q=-0.0 size=N/A time=00:14:23.52 bitrate=N/A speed=18.8x    frame=20956 fps=451 q=-0.0 size=N/A time=00:14:34.03 bitrate=N/A speed=18.8x    frame=21190 fps=451 q=-0.0 size=N/A time=00:14:43.79 bitrate=N/A speed=18.8x    frame=21426 fps=451 q=-0.0 size=N/A time=00:14:53.64 bitrate=N/A speed=18.8x    frame=21674 fps=451 q=-0.0 size=N/A time=00:15:03.98 bitrate=N/A speed=18.8x    frame=21944 fps=452 q=-0.0 size=N/A time=00:15:15.24 bitrate=N/A speed=18.9x    frame=22201 fps=453 q=-0.0 size=N/A time=00:15:25.96 bitrate=N/A speed=18.9x    frame=22466 fps=453 q=-0.0 size=N/A time=00:15:37.01 bitrate=N/A speed=18.9x    frame=22749 fps=454 q=-0.0 size=N/A time=00:15:48.82 bitrate=N/A speed=  19x    frame=23038 fps=455 q=-0.0 size=N/A time=00:16:00.87 bitrate=N/A speed=  19x    frame=23311 fps=456 q=-0.0 size=N/A time=00:16:12.26 bitrate=N/A speed=  19x    frame=23601 fps=457 q=-0.0 size=N/A time=00:16:24.35 bitrate=N/A speed=19.1x    frame=23876 fps=458 q=-0.0 size=N/A time=00:16:35.82 bitrate=N/A speed=19.1x    frame=24142 fps=459 q=-0.0 size=N/A time=00:16:46.92 bitrate=N/A speed=19.1x    frame=24398 fps=459 q=-0.0 size=N/A time=00:16:57.59 bitrate=N/A speed=19.1x    frame=24668 fps=460 q=-0.0 size=N/A time=00:17:08.86 bitrate=N/A speed=19.2x    frame=24942 fps=460 q=-0.0 size=N/A time=00:17:20.28 bitrate=N/A speed=19.2x    frame=25193 fps=460 q=-0.0 size=N/A time=00:17:30.75 bitrate=N/A speed=19.2x    frame=25449 fps=461 q=-0.0 size=N/A time=00:17:41.43 bitrate=N/A speed=19.2x    frame=25691 fps=461 q=-0.0 size=N/A time=00:17:51.52 bitrate=N/A speed=19.2x    frame=25956 fps=461 q=-0.0 size=N/A time=00:18:02.58 bitrate=N/A speed=19.2x    frame=26229 fps=462 q=-0.0 size=N/A time=00:18:13.96 bitrate=N/A speed=19.3x    frame=26493 fps=463 q=-0.0 size=N/A time=00:18:24.97 bitrate=N/A speed=19.3x    frame=26741 fps=463 q=-0.0 size=N/A time=00:18:35.32 bitrate=N/A speed=19.3x    frame=26995 fps=463 q=-0.0 size=N/A time=00:18:45.91 bitrate=N/A speed=19.3x    frame=27242 fps=463 q=-0.0 size=N/A time=00:18:56.21 bitrate=N/A speed=19.3x    frame=27515 fps=464 q=-0.0 size=N/A time=00:19:07.60 bitrate=N/A speed=19.3x    frame=27791 fps=464 q=-0.0 size=N/A time=00:19:19.11 bitrate=N/A speed=19.4x    frame=28036 fps=464 q=-0.0 size=N/A time=00:19:29.33 bitrate=N/A speed=19.4x    frame=28243 fps=464 q=-0.0 size=N/A time=00:19:37.96 bitrate=N/A speed=19.3x    frame=28447 fps=463 q=-0.0 size=N/A time=00:19:46.47 bitrate=N/A speed=19.3x    frame=28686 fps=463 q=-0.0 size=N/A time=00:19:56.44 bitrate=N/A speed=19.3x    frame=28912 fps=463 q=-0.0 size=N/A time=00:20:05.87 bitrate=N/A speed=19.3x    frame=29111 fps=462 q=-0.0 size=N/A time=00:20:14.21 bitrate=N/A speed=19.3x    frame=29360 fps=463 q=-0.0 size=N/A time=00:20:24.55 bitrate=N/A speed=19.3x    frame=29598 fps=463 q=-0.0 size=N/A time=00:20:34.48 bitrate=N/A speed=19.3x    frame=29840 fps=463 q=-0.0 size=N/A time=00:20:44.57 bitrate=N/A speed=19.3x    frame=30059 fps=462 q=-0.0 size=N/A time=00:20:53.71 bitrate=N/A speed=19.3x    frame=30287 fps=462 q=-0.0 size=N/A time=00:21:03.22 bitrate=N/A speed=19.3x    frame=30552 fps=463 q=-0.0 size=N/A time=00:21:14.27 bitrate=N/A speed=19.3x    frame=30836 fps=463 q=-0.0 size=N/A time=00:21:26.11 bitrate=N/A speed=19.3x    frame=31093 fps=464 q=-0.0 size=N/A time=00:21:36.83 bitrate=N/A speed=19.3x    frame=31383 fps=464 q=-0.0 size=N/A time=00:21:48.93 bitrate=N/A speed=19.4x    frame=31663 fps=465 q=-0.0 size=N/A time=00:22:00.61 bitrate=N/A speed=19.4x    frame=31930 fps=465 q=-0.0 size=N/A time=00:22:11.74 bitrate=N/A speed=19.4x    frame=32198 fps=466 q=-0.0 size=N/A time=00:22:22.92 bitrate=N/A speed=19.4x    frame=32460 fps=466 q=-0.0 size=N/A time=00:22:33.85 bitrate=N/A speed=19.4x    frame=32700 fps=466 q=-0.0 size=N/A time=00:22:43.86 bitrate=N/A speed=19.4x    frame=32950 fps=466 q=-0.0 size=N/A time=00:22:54.28 bitrate=N/A speed=19.4x    frame=33195 fps=466 q=-0.0 size=N/A time=00:23:04.50 bitrate=N/A speed=19.4x    frame=33471 fps=467 q=-0.0 size=N/A time=00:23:16.01 bitrate=N/A speed=19.5x    frame=33726 fps=467 q=-0.0 size=N/A time=00:23:26.65 bitrate=N/A speed=19.5x    frame=33943 fps=467 q=-0.0 size=N/A time=00:23:35.70 bitrate=N/A speed=19.5x    frame=34139 fps=466 q=-0.0 size=N/A time=00:23:43.88 bitrate=N/A speed=19.4x    [Parsed_ssim_10 @ 000002d326dfa740] SSIM Y:0.992134 (21.042588) U:0.993947 (22.180526) V:0.994394 (22.513657) All:0.992813 (21.434573)
[out#0/null @ 000002d3269150c0] video:14697KiB audio:267508KiB subtitle:0KiB other streams:0KiB global headers:0KiB muxing overhead: unknown
frame=34203 fps=466 q=-0.0 Lsize=N/A time=00:23:46.55 bitrate=N/A speed=19.4x    
